<svg xmlns="http://www.w3.org/2000/svg" width="55" height="44" viewBox="0 0 55 44"><g transform="translate(-1270 -664)"><rect width="55" height="44" transform="translate(1270 664)" fill="#282828" opacity="0.199"/><path d="M1.051,18.2a.974.974,0,0,0,.64-.237L11.749,9.875a1.047,1.047,0,0,0,0-1.613L1.739.221A1,1,0,0,0,.98.007a1.019,1.019,0,0,0-.7.38.98.98,0,0,0-.225.759.978.978,0,0,0,.38.688L9.448,9.068.387,16.35a.978.978,0,0,0-.38.688,1,1,0,0,0,.213.759A1.033,1.033,0,0,0,1.051,18.2Zm0,0" transform="translate(1288.888 692.304) rotate(-90)" fill="#fff" opacity="0.498"/></g></svg>