<svg xmlns="http://www.w3.org/2000/svg" width="101" height="93" viewBox="0 0 101 93"><g transform="translate(-45 -3742)"><rect width="101" height="93" transform="translate(45 3742)" fill="#68a99b"/><path d="M1.932,33.461a1.791,1.791,0,0,0,1.177-.436L21.6,18.155a1.924,1.924,0,0,0,0-2.965L3.2.406A1.846,1.846,0,0,0,1.8.013a1.874,1.874,0,0,0-1.286.7A1.8,1.8,0,0,0,.1,2.107,1.8,1.8,0,0,0,.8,3.371l16.572,13.3L.711,30.06a1.8,1.8,0,0,0-.7,1.265,1.846,1.846,0,0,0,.392,1.4A1.9,1.9,0,0,0,1.932,33.461Zm0,0" transform="translate(86.548 3761.098)" fill="#fff"/><text transform="translate(97 3825)" fill="#fff" font-size="15" font-family="Lato-Regular, Lato"><tspan x="-33.787" y="0">AGES 60+</tspan></text></g></svg>