<svg xmlns="http://www.w3.org/2000/svg" width="101" height="93" viewBox="0 0 101 93"><g transform="translate(-45 -3742)"><rect width="101" height="93" transform="translate(45 3742)" fill="#68a99b"/><path d="M20.365,33.461a1.791,1.791,0,0,1-1.177-.436L.7,18.155a1.924,1.924,0,0,1,0-2.965L19.1.406A1.846,1.846,0,0,1,20.5.013a1.874,1.874,0,0,1,1.286.7,1.8,1.8,0,0,1,.414,1.4,1.8,1.8,0,0,1-.7,1.265L4.928,16.672,21.586,30.06a1.8,1.8,0,0,1,.7,1.265,1.846,1.846,0,0,1-.392,1.4A1.9,1.9,0,0,1,20.365,33.461Zm0,0" transform="translate(82.548 3761.098)" fill="#fff"/><text transform="translate(97 3825)" fill="#fff" font-size="15" font-family="Lato-Regular, Lato"><tspan x="-40.924" y="0">AGES 18-38</tspan></text></g></svg>